<svg width="16" height="16" viewBox="0 0 16 16" fill="none" xmlns="http://www.w3.org/2000/svg">
<path fill-rule="evenodd" clip-rule="evenodd" d="M3.47002 6.53C3.61153 6.39345 3.80102 6.31794 3.99767 6.31974C4.19432 6.32154 4.38239 6.40051 4.52138 6.53963C4.66037 6.67875 4.73916 6.8669 4.74078 7.06355C4.74239 7.2602 4.6667 7.44962 4.53002 7.591L3.80302 8.318C3.29697 8.83411 3.01508 9.52911 3.01864 10.2519C3.02219 10.9747 3.3109 11.6669 3.82201 12.178C4.33312 12.6891 5.0253 12.9778 5.74811 12.9814C6.47091 12.9849 7.16591 12.7031 7.68202 12.197L8.40902 11.47C8.55119 11.3375 8.73924 11.2654 8.93354 11.2688C9.12784 11.2723 9.31323 11.351 9.45064 11.4884C9.58805 11.6258 9.66676 11.8112 9.67019 12.0055C9.67362 12.1998 9.6015 12.3878 9.46902 12.53L8.74302 13.257C7.94386 14.0356 6.87018 14.4681 5.75445 14.4609C4.63873 14.4536 3.57076 14.0072 2.78181 13.2182C1.99285 12.4293 1.54641 11.3613 1.53915 10.2456C1.53189 9.12984 1.9644 8.05616 2.74302 7.257L3.47002 6.53ZM11.47 8.409C11.3375 8.55118 11.2654 8.73922 11.2688 8.93352C11.2723 9.12783 11.351 9.31321 11.4884 9.45062C11.6258 9.58804 11.8112 9.66675 12.0055 9.67018C12.1998 9.67361 12.3878 9.60148 12.53 9.469L13.257 8.743C14.0356 7.94385 14.4681 6.87016 14.4609 5.75444C14.4536 4.63871 14.0072 3.57075 13.2182 2.78179C12.4293 1.99284 11.3613 1.5464 10.2456 1.53914C9.12986 1.53188 8.05617 1.96438 7.25702 2.743L6.53002 3.47C6.39346 3.61152 6.31796 3.80101 6.31976 3.99765C6.32156 4.1943 6.40052 4.38237 6.53965 4.52137C6.67877 4.66036 6.86692 4.73914 7.06356 4.74076C7.26021 4.74238 7.44963 4.66669 7.59102 4.53L8.31802 3.803C8.83413 3.29695 9.52912 3.01506 10.2519 3.01862C10.9747 3.02218 11.6669 3.31089 12.178 3.82199C12.6891 4.3331 12.9778 5.02529 12.9814 5.74809C12.985 6.4709 12.7031 7.16589 12.197 7.682L11.47 8.409ZM10.53 6.53C10.6037 6.46134 10.6628 6.37854 10.7038 6.28654C10.7448 6.19454 10.7668 6.09523 10.7686 5.99452C10.7704 5.89382 10.7519 5.79379 10.7141 5.7004C10.6764 5.60702 10.6203 5.52218 10.5491 5.45096C10.4778 5.37975 10.393 5.3236 10.2996 5.28588C10.2062 5.24816 10.1062 5.22963 10.0055 5.23141C9.90479 5.23319 9.80548 5.25523 9.71348 5.29622C9.62148 5.33721 9.53868 5.39632 9.47002 5.47L5.47002 9.47C5.39633 9.53866 5.33723 9.62147 5.29624 9.71346C5.25524 9.80546 5.2332 9.90478 5.23143 10.0055C5.22965 10.1062 5.24817 10.2062 5.2859 10.2996C5.32362 10.393 5.37976 10.4778 5.45098 10.549C5.5222 10.6203 5.60703 10.6764 5.70042 10.7141C5.79381 10.7518 5.89384 10.7704 5.99454 10.7686C6.09524 10.7668 6.19456 10.7448 6.28656 10.7038C6.37856 10.6628 6.46136 10.6037 6.53002 10.53L10.53 6.53Z" fill="black"/>
</svg>
