<svg width="15" height="15" viewBox="0 0 15 15" fill="none" xmlns="http://www.w3.org/2000/svg">
<g clip-path="url(#clip0_1667_3)">
<path d="M3.81006 9.11999C3.49345 9.42948 3.09231 9.63833 2.6572 9.7202C2.22208 9.80208 1.77247 9.75332 1.36502 9.58008C0.957576 9.40683 0.61053 9.11685 0.367624 8.74668C0.124718 8.37652 -0.00317622 7.94273 5.99285e-05 7.49999C0.000332073 7.0588 0.130308 6.62742 0.37382 6.25951C0.617332 5.89161 0.963633 5.60342 1.36965 5.43078C1.77566 5.25814 2.22347 5.20868 2.65738 5.28855C3.09128 5.36842 3.49213 5.5741 3.81006 5.87999L10.5151 2.52749C10.4487 2.00101 10.5705 1.46802 10.859 1.02266C11.1476 0.577311 11.5842 0.248264 12.0918 0.0936543C12.5994 -0.0609553 13.1454 -0.0311771 13.6332 0.177728C14.121 0.386633 14.5192 0.761221 14.7576 1.23531C14.996 1.70941 15.0591 2.25249 14.9359 2.76863C14.8126 3.28476 14.5109 3.74072 14.084 4.05596C13.6572 4.3712 13.1326 4.52543 12.6031 4.4914C12.0735 4.45737 11.5731 4.23727 11.1901 3.86999L4.48506 7.22249C4.50774 7.40679 4.50774 7.59318 4.48506 7.77749L11.1901 11.13C11.5067 10.8205 11.9078 10.6117 12.3429 10.5298C12.778 10.4479 13.2277 10.4967 13.6351 10.6699C14.0425 10.8431 14.3896 11.1331 14.6325 11.5033C14.8754 11.8735 15.0033 12.3073 15.0001 12.75C14.9975 13.0556 14.9327 13.3574 14.8097 13.6372C14.6866 13.9169 14.5079 14.1686 14.2844 14.377C14.0608 14.5854 13.7972 14.746 13.5095 14.8492C13.2219 14.9523 12.9162 14.9958 12.6112 14.9769C12.3062 14.958 12.0082 14.8772 11.7355 14.7394C11.4627 14.6016 11.2209 14.4097 11.0247 14.1753C10.8286 13.941 10.6823 13.6691 10.5946 13.3764C10.507 13.0836 10.4799 12.7761 10.5151 12.4725L3.81006 9.11999Z" fill="#000000"/>
</g>
<defs>
<clipPath id="clip0_1667_3">
<rect width="15" height="15" fill="white"/>
</clipPath>
</defs>
</svg>
